<svg viewBox="0 0 400 300" xmlns="http://www.w3.org/2000/svg"><path d="m98.53 188.69h-49.17v-19.44l46.55-72.69h22.22v74.49h16.87v17.64h-16.87v23.52h-19.6zm0-64.36h-.33l-28.91 46.72h29.24z" fill="#68e1fd"/><path d="m314.21 188.69h-49.16v-19.44l46.55-72.69h22.22v74.49h16.82v17.64h-16.82v23.52h-19.61zm3.42-64.36h-.33l-28.91 46.72h29.24z" fill="#68e1fd"/><path d="m196.48 102.33a51.95 51.95 0 1 0 51.94 52 51.94 51.94 0 0 0 -51.94-52z" fill="#fff" stroke="#231f20" stroke-linecap="round" stroke-linejoin="round" stroke-width="1.03"/><ellipse cx="223.71" cy="137.38" fill="#231f20" rx="2.4" ry="3.57"/><path d="m135.46 138.89 122-27-24-7s-13-21.55-16.47-22-66.53 13-66.53 13l-4 30.36z" fill="#231f20"/><path d="m176.27 165.1s31-12.39 44.56 10.69" fill="#fff"/><path d="m220.83 176.31a.51.51 0 0 1 -.44-.26c-13.19-22.43-43.63-10.59-43.93-10.47a.52.52 0 0 1 -.39-1c.32-.12 31.57-12.29 45.21 10.91a.53.53 0 0 1 -.18.71.54.54 0 0 1 -.27.11z" fill="#231f20"/><path d="m160.86 211.99-13.79-21.8 60.28-10.31 4.14 20.89 6.12-19.24 30.84 6.09-6.27 24.37z" fill="#231f20"/><path d="m239.69 164.23h5.61a0 0 0 0 1 0 0v20.94a2.64 2.64 0 0 1 -2.64 2.64h-.33a2.64 2.64 0 0 1 -2.64-2.64v-20.94a0 0 0 0 1 0 0z" fill="#fff" transform="matrix(.99055738 -.13709878 .13709878 .99055738 -21.84 34.9)"/><path d="m243.59 188.25a3.15 3.15 0 0 1 -3.11-2.71l-2.87-20.75a.5.5 0 0 1 .43-.56l5.55-.77a.5.5 0 0 1 .37.1.47.47 0 0 1 .19.33l2.85 20.74a3.12 3.12 0 0 1 -2.68 3.54l-.32.05a3.11 3.11 0 0 1 -.41.03zm-4.92-23.1 2.8 20.25a2.15 2.15 0 0 0 2.41 1.83h.33a2.14 2.14 0 0 0 1.82-2.41l-2.8-20.25z" fill="#231f20"/><path d="m235.19 145.7h9.05v20.48h-9.05z" fill="#fff" transform="matrix(.99055738 -.13709878 .13709878 .99055738 -19.11 34.33)"/><path d="m236.64 167.21a.54.54 0 0 1 -.3-.1.45.45 0 0 1 -.19-.33l-2.81-20.3a.49.49 0 0 1 .09-.37.53.53 0 0 1 .33-.19l9-1.24a.49.49 0 0 1 .56.43l2.81 20.29a.5.5 0 0 1 -.43.56l-9 1.24zm-2.24-20.37 2.67 19.3 8-1.1-2.67-19.3z" fill="#231f20"/><rect fill="#fff" height="35.62" rx="3.2" transform="matrix(.99055738 -.13709878 .13709878 .99055738 -24.79 35.51)" width="9.05" x="240.98" y="179.98"/><path d="m246.19 216.14a3.7 3.7 0 0 1 -3.66-3.19l-4-28.95a3.68 3.68 0 0 1 .71-2.74 3.72 3.72 0 0 1 2.44-1.43l2.64-.36a3.69 3.69 0 0 1 4.16 3.15l4 29a3.7 3.7 0 0 1 -3.15 4.16l-2.64.37zm-1.36-35.71a2.31 2.31 0 0 0 -.37 0l-2.64.36a2.67 2.67 0 0 0 -1.78 1.05 2.63 2.63 0 0 0 -.52 2l4 29a2.71 2.71 0 0 0 3 2.3l2.64-.37a2.7 2.7 0 0 0 2.3-3l-4-29a2.7 2.7 0 0 0 -2.66-2.33z" fill="#231f20"/><circle cx="237.6" cy="140.62" fill="#fff" r="24.03"/><path d="m237.58 165.15a24.54 24.54 0 1 1 24.32-27.9 24.57 24.57 0 0 1 -20.9 27.67 25.71 25.71 0 0 1 -3.42.23zm0-48.07a23.77 23.77 0 0 0 -3.25.22 23.54 23.54 0 1 0 26.54 20.09 23.58 23.58 0 0 0 -23.25-20.31z" fill="#231f20"/><circle cx="237.6" cy="140.62" fill="#fff" r="19.52"/><path d="m237.59 160.64a20 20 0 1 1 2.75-.19 19.66 19.66 0 0 1 -2.75.19zm0-39a19.78 19.78 0 0 0 -2.65.18 19 19 0 1 0 2.65-.18z" fill="#231f20"/><path d="m260.55 194.79a14.57 14.57 0 0 0 -4.9-4c-5.73-3-12.3-2.9-18.33-1-2.14.68-6.29 1.65-6.51 4.49a2.64 2.64 0 0 0 1.91 2.5 7.86 7.86 0 0 0 3.35.13 8.65 8.65 0 0 0 -4.53 1.14c-1.29.91-2 2.9-.94 4.11a3.39 3.39 0 0 0 1.75 1 8 8 0 0 0 4.45-.06 20.74 20.74 0 0 0 -4.55 1.43c-.88.39-1.86 1.08-1.76 2s1 1.34 1.82 1.62a18.75 18.75 0 0 0 5.35 1 10.54 10.54 0 0 0 -4.35 1.87c-2 1.68-2 4.87.71 5.78a8 8 0 0 0 2.68.31c8 0 17.58-1 23-7.66a12.43 12.43 0 0 0 2.56-11.31 10.84 10.84 0 0 0 -1.71-3.35z" fill="#fff"/><path d="m236.64 217.58a8.43 8.43 0 0 1 -2.78-.33 3.45 3.45 0 0 1 -2.38-2.63 4.36 4.36 0 0 1 1.5-4 7.46 7.46 0 0 1 2.16-1.25 18.61 18.61 0 0 1 -3-.77c-1.33-.46-2-1.14-2.15-2s.62-1.9 2-2.55l.71-.3a5.29 5.29 0 0 1 -.54-.13 3.77 3.77 0 0 1 -2-1.14 2.76 2.76 0 0 1 -.59-2.16 4 4 0 0 1 1.62-2.67 4.88 4.88 0 0 1 1-.54 3.07 3.07 0 0 1 -1.91-2.87c.23-2.92 3.84-4 6.22-4.73l.64-.19c6.68-2.11 13.33-1.74 18.71 1a15 15 0 0 1 5.07 4.18 11.47 11.47 0 0 1 1.81 3.48 12.89 12.89 0 0 1 -2.65 11.78c-5.67 6.93-15.49 7.83-23.41 7.84zm-.95-13.79a19.74 19.74 0 0 0 -3.24 1.13c-.47.21-1.54.78-1.46 1.52s.84 1 1.48 1.21a18.11 18.11 0 0 0 5.21 1 .49.49 0 0 1 .48.44.5.5 0 0 1 -.37.54 10.4 10.4 0 0 0 -4.16 1.77 3.31 3.31 0 0 0 -1.17 3.06 2.44 2.44 0 0 0 1.72 1.87 7.2 7.2 0 0 0 2.51.28c7.71 0 17.24-.86 22.64-7.47a11.9 11.9 0 0 0 2.48-10.85 10.48 10.48 0 0 0 -1.66-3.17 13.88 13.88 0 0 0 -4.73-3.9c-5.15-2.65-11.52-3-17.95-1l-.65.2c-2.12.64-5.34 1.61-5.52 3.85a2.17 2.17 0 0 0 1.58 2 4.85 4.85 0 0 0 1.79.22c.47-.05.93-.08 1.37-.11a.52.52 0 0 1 .53.46.51.51 0 0 1 -.45.54c-.45 0-.92.1-1.4.11a6.15 6.15 0 0 0 -2.89.94 3 3 0 0 0 -1.21 2 1.79 1.79 0 0 0 .36 1.39 2.91 2.91 0 0 0 1.5.82 7.68 7.68 0 0 0 3 .2c.4-.1.81-.19 1.21-.27a.5.5 0 0 1 .58.37.51.51 0 0 1 -.34.6 7.66 7.66 0 0 1 -1.24.25z" fill="#231f20"/><path d="m204.79 141s12.18 18.3 4.81 18.56-8-1.67-8-1.67" fill="#fff"/><path d="m208.28 160.14c-6.18 0-7.07-1.69-7.19-2a.53.53 0 0 1 .33-.66.52.52 0 0 1 .65.33s.9 1.55 7.51 1.31a1.69 1.69 0 0 0 1.62-.84c1.58-3.07-4.4-13.25-6.84-16.91a.52.52 0 0 1 .86-.58c.93 1.4 9 13.8 6.9 18a2.68 2.68 0 0 1 -2.5 1.41z" fill="#231f20"/><ellipse cx="238.71" cy="140.01" fill="#d1d3d4" rx="4.42" ry="7.53"/><ellipse cx="184.62" cy="140.01" fill="#231f20" rx="3.37" ry="6.09"/></svg>